<svg xmlns="http://www.w3.org/2000/svg" style="display: none;">
    <symbol id="archive34" viewBox="0 0 915.9 915.9">
      <title>archive34 icon</title>
      <path d="M749.1 0H166.7c-27.6 0-50 22.4-50 50v815.9c0 27.6 22.4 50 50 50h582.5c27.6 0 50-22.4 50-50V50c-.1-27.7-22.4-50-50.1-50zm-8.6 817.5c0 22.1-17.9 40-40 40H215.3c-22.1 0-40-17.9-40-40V523.6c0-22.1 17.9-40 40-40h485.2c22.1 0 40 17.9 40 40v293.9zm0-425.4c0 22.1-17.9 40-40 40H215.3c-22.1 0-40-17.9-40-40V98.2c0-22.1 17.9-40 40-40h485.2c22.1 0 40 17.9 40 40v293.9z"/><path d="M700.5 88.2H215.3c-5.5 0-10 4.5-10 10v293.9c0 5.5 4.5 10 10 10h485.2c5.5 0 10-4.5 10-10V98.2c0-5.5-4.5-10-10-10zm-83.3 178.3c0 22.1-17.9 40-40 40H338.6c-22.1 0-40-17.9-40-40v-15.7c0-8.3 6.7-15 15-15s15 6.7 15 15v15.7c0 5.5 4.5 10 10 10h238.6c5.5 0 10-4.5 10-10v-15.7c0-8.3 6.7-15 15-15s15 6.7 15 15v15.7zM700.5 513.6H215.3c-5.5 0-10 4.5-10 10v293.9c0 5.5 4.5 10 10 10h485.2c5.5 0 10-4.5 10-10V523.6c0-5.5-4.5-10-10-10zm-83.3 170c0 23.5-19.1 42.6-42.6 42.6h-236c-22.1 0-40-17.898-40-40v-15.6c0-8.3 6.7-15 15-15s15 6.7 15 15v15.7c0 5.5 4.5 10 10 10h236c7 0 12.6-5.7 12.6-12.6v-13.1c0-8.3 6.7-15 15-15s15 6.7 15 15v13z"/>
    </symbol>
    <symbol id="earth213" viewBox="0 0 15 15">
      <title>earth213 icon</title>
      <path d="M14.982 7C14.736 3.256 11.744.263 8 .017V0H7v.017C3.256.263.263 3.257.017 7H0v1h.017c.246 3.744 3.24 6.736 6.983 6.982V15h1v-.018c3.744-.246 6.736-3.238 6.982-6.982H15V7h-.018zM4.695 1.635C4.212 2.277 3.81 3.082 3.52 4h-1.5c.653-1.017 1.58-1.84 2.675-2.365zM1.498 5h1.758c-.134.632-.22 1.303-.246 2H1.02c.052-.704.218-1.377.478-2zm-.48 3H3.01c.027.697.112 1.368.246 2H1.498c-.26-.623-.426-1.296-.48-2zm1.003 3H3.52c.292.918.693 1.723 1.177 2.365C3.6 12.84 2.673 12.018 2.02 11zM7 13.936C5.972 13.66 5.087 12.556 4.55 11H7v2.936zM7 10H4.27c-.142-.623-.23-1.296-.26-2H7v2zm0-3H4.01c.03-.704.118-1.377.26-2H7v2zm0-3H4.55C5.087 2.443 5.972 1.34 7 1.065V4zm5.98 0h-1.497c-.293-.918-.693-1.723-1.178-2.365C11.4 2.16 12.327 2.983 12.98 4zM8 1.065C9.027 1.34 9.913 2.443 10.45 4H8V1.065zM8 5h2.73c.142.623.23 1.296.26 2H8V5zm0 3h2.99c-.03.704-.118 1.377-.26 2H8V8zm0 5.936V11h2.45c-.537 1.557-1.423 2.66-2.45 2.936zm2.305-.57c.483-.644.885-1.448 1.178-2.366h1.496c-.653 1.018-1.58 1.84-2.675 2.365zM13.502 10h-1.758c.134-.632.22-1.303.246-2h1.99c-.052.704-.218 1.377-.478 2zM11.99 7c-.027-.697-.112-1.368-.246-2h1.758c.26.623.426 1.296.48 2H11.99z" fill="#030104"/>
    </symbol>
    <symbol id="home78" viewBox="0 0 460.298 460.297">
      <title>home78 icon</title>
      <path d="M230.15 120.94L65.985 256.273c0 .19-.048.472-.144.855-.094.38-.144.655-.144.85v137.042c0 4.948 1.81 9.236 5.426 12.847 3.616 3.612 7.898 5.43 12.847 5.43H193.6V303.664H266.7v109.64h109.63c4.947 0 9.235-1.814 12.846-5.435 3.617-3.608 5.432-7.9 5.432-12.848v-137.04c0-.76-.104-1.335-.288-1.708L230.148 120.94z"/><path d="M457.122 225.438L394.6 173.476V56.99c0-2.664-.856-4.854-2.574-6.568-1.704-1.712-3.894-2.568-6.563-2.568h-54.816c-2.666 0-4.855.856-6.57 2.568-1.71 1.714-2.566 3.905-2.566 6.567v55.672l-69.66-58.245c-6.085-4.95-13.32-7.423-21.695-7.423s-15.608 2.474-21.698 7.423L3.172 225.437c-1.903 1.52-2.946 3.567-3.14 6.137-.193 2.568.472 4.81 1.997 6.713l17.7 21.128c1.525 1.712 3.52 2.76 5.996 3.142 2.285.192 4.57-.476 6.855-1.998L230.15 95.816l197.57 164.74c1.525 1.33 3.52 1.992 5.995 1.992h.858c2.47-.377 4.463-1.43 5.996-3.14l17.702-21.124c1.522-1.906 2.19-4.145 1.99-6.716-.194-2.563-1.24-4.61-3.14-6.132z"/>
    </symbol>
    <symbol id="info27" viewBox="0 0 45.999 45.999">
      <title>info27 icon</title>
      <path d="M39.264 6.736c-8.982-8.98-23.545-8.982-32.528 0-8.982 8.982-8.98 23.545 0 32.528 8.982 8.98 23.545 8.98 32.528 0 8.98-8.983 8.98-23.545 0-32.528zM26 33c0 1.657-1.344 3-3 3s-3-1.343-3-3V21c0-1.657 1.342-3 3-3s3 1.343 3 3v12zm-3.054-17.128c-1.728 0-2.88-1.224-2.844-2.735-.036-1.584 1.116-2.77 2.88-2.77 1.763 0 2.88 1.187 2.916 2.77 0 1.51-1.152 2.735-2.952 2.735z"/>
    </symbol>
    <symbol id="info28" viewBox="0 0 23.625 23.625">
      <title>info28 icon</title>
      <path d="M11.812 0C5.29 0 0 5.29 0 11.812s5.29 11.813 11.812 11.813 11.813-5.29 11.813-11.813S18.335 0 11.812 0zm2.46 18.307c-.61.24-1.093.422-1.456.548-.362.126-.783.19-1.262.19-.736 0-1.31-.18-1.717-.54s-.61-.814-.61-1.367c0-.215.014-.435.044-.66.032-.223.08-.475.148-.758l.76-2.688c.068-.258.126-.503.172-.73.046-.23.068-.442.068-.634 0-.342-.07-.582-.212-.717-.143-.134-.412-.2-.813-.2-.196 0-.398.03-.605.09-.205.063-.383.12-.53.176l.202-.828c.498-.203.975-.377 1.43-.52.455-.147.885-.22 1.29-.22.73 0 1.295.18 1.692.53.395.354.594.813.594 1.377 0 .117-.014.323-.04.617-.028.295-.08.564-.153.81l-.757 2.68c-.062.216-.117.462-.167.737-.05.274-.074.484-.074.625 0 .356.08.6.24.728.157.13.434.194.826.194.185 0 .392-.033.626-.097.232-.064.4-.12.506-.17l-.203.827zM14.136 7.43c-.353.327-.778.49-1.275.49-.496 0-.924-.163-1.28-.49-.354-.33-.533-.728-.533-1.194 0-.465.18-.865.532-1.196.356-.332.784-.497 1.28-.497.497 0 .923.165 1.275.497.353.33.53.73.53 1.196 0 .467-.177.865-.53 1.193z" fill="#030104"/>
    </symbol>
    <symbol id="logo27" viewBox="0 0 505.139 505.139">
      <title>logo27 icon</title>
      <path d="M456.698 412.044c-13.352-5.48-24.353-14.107-23.555-30.63.777-16.503-11.8-27.44-11.8-27.44s11.002-36.13.778-65.962c-10.202-29.876-43.96-77.74-69.867-113.85-25.863-36.132-3.904-77.764-27.438-131.13-23.577-53.366-84.795-50.238-117.776-27.46-33.004 22.736-22.8 79.25-21.248 106 1.575 26.66.712 45.664-2.33 52.567-3.106 6.902-24.332 32.226-38.482 53.408-14.13 21.183-24.332 65.165-34.578 83.22-10.203 18.055-3.128 34.535-3.128 34.535s-7.075 2.33-12.576 14.172c-5.5 11.734-16.48 17.235-36.11 21.118-19.628 3.926-19.628 16.545-14.926 30.674 4.724 14.107.022 22.002-5.48 40.014-5.5 18.013 21.982 23.556 48.665 26.64 26.705 3.172 56.537 20.45 81.69 23.578 25.086 3.15 32.96-17.257 32.96-17.257s28.257-6.32 58.068-7.053c29.854-.798 58.07 6.277 58.07 6.277s5.5 12.554 15.703 18.033c10.225 5.5 32.205 6.3 46.334-8.585 14.15-14.95 51.835-33.758 73.017-45.557 21.243-11.82 17.36-29.853 4.008-35.31zM272.958 65.812c13.46 0 24.332 13.352 24.332 29.81 0 11.692-5.457 21.766-13.417 26.662-2.028-.884-4.163-1.79-6.428-2.76 4.79-2.374 8.197-8.478 8.197-15.597 0-9.275-5.738-16.804-12.835-16.804-7.01 0-12.77 7.55-12.77 16.804 0 3.43.82 6.73 2.222 9.426-4.186-1.66-8.047-3.214-11.067-4.357-1.64-4.012-2.567-8.542-2.567-13.374 0-16.458 10.872-29.81 24.332-29.81zm-1.747 62.857c6.73 2.33 14.216 6.708 13.44 11.043-.798 4.357-4.336 4.357-13.44 9.923-9.123 5.522-28.882 17.774-35.203 18.572-6.363.798-9.9-2.76-16.63-7.097-6.73-4.356-19.393-14.69-16.2-20.19 0 0 9.857-7.55 14.193-11.496 4.357-3.97 15.445-13.44 22.175-12.21 6.73 1.144 24.936 9.082 31.666 11.455zm-60.678-58.134c10.613 0 19.24 12.64 19.24 28.236 0 2.87-.28 5.522-.82 8.09-2.587.883-5.22 2.307-7.764 4.464-1.294 1.057-2.438 2.05-3.538 3.04 1.683-3.148 2.35-7.635 1.596-12.36-1.424-8.52-7.097-14.732-12.727-13.847-5.61.97-8.996 8.627-7.572 17.19 1.445 8.565 7.097 14.777 12.705 13.85.324-.066.626-.152.95-.26-2.74 2.632-5.264 4.897-7.83 6.816-7.766-3.602-13.46-14.323-13.46-27.007 0-15.595 8.606-28.214 19.22-28.214zm-20.73 396.708c-2.5 11.26-15.68 19.435-15.68 19.435-11.95 3.752-45.17-10.657-60.227-16.977-15.035-6.234-53.323-8.175-58.35-13.74-4.982-5.696 2.503-18.228 4.423-30.114 1.855-11.973-3.753-19.458-1.898-27.633 1.898-8.132 26.36-8.132 35.743-13.762 9.426-5.673 11.303-21.98 18.83-26.36 7.53-4.42 21.313 11.26 26.964 20.083 5.63 8.736 26.963 46.4 35.743 55.804 8.8 9.405 16.955 22.002 14.453 33.262zm138.852-109.407c-2.265 11.066-2.265 51.058-2.265 51.058s-24.333 33.715-62.06 39.237c-37.684 5.522-56.537 1.553-56.537 1.553l-21.183-24.31s16.458-2.394 14.13-18.874c-2.374-16.48-50.24-39.258-58.89-59.685-8.606-20.384-1.552-54.962 9.45-72.24 10.98-17.258 18.01-54.92 29.012-67.518 11-12.51 19.608-39.216 15.682-51.015 0 0 23.555 28.28 40.014 23.598 16.48-4.724 53.43-32.227 58.888-27.48 5.48 4.723 52.59 108.327 57.27 141.31 4.724 32.96-3.15 58.068-3.15 58.068s-18.033-4.702-20.362 6.3zm120.494 73.966c-7.334 6.73-48.146 23.21-60.377 36.066-12.165 12.747-28.063 23.123-37.79 20.103-9.794-3.085-18.315-16.48-14.044-36.023 4.25-19.478 7.938-40.833 7.334-53.043-.604-12.21-3.085-28.71 0-31.148 3.042-2.374 7.895-1.187 7.895-1.187s-2.394 23.145 11.605 29.293c14 6.04 34.147-2.438 40.25-8.585 6.127-6.06 10.398-15.206 10.398-15.206s6.083 3.085 5.48 12.813c-.605 9.75 4.248 23.814 13.438 28.668 9.125 4.81 23.146 11.56 15.812 18.248z" fill="#010002"/>
    </symbol></svg>