<svg xmlns="http://www.w3.org/2000/svg" style="display: none;">
    <symbol id="add13" viewBox="0 0 305.002 305.002">
      <title>add13 icon</title>
      <path d="M152.502 0C68.412 0 0 68.413 0 152.5S68.413 305 152.502 305c84.09 0 152.5-68.41 152.5-152.5S236.592 0 152.502 0zm0 280C82.198 280 25 222.807 25 152.5 25 82.198 82.198 25 152.502 25c70.305 0 127.5 57.197 127.5 127.5 0 70.306-57.195 127.5-127.5 127.5z"/><path d="M226 140H165V79.006c0-6.903-5.596-12.5-12.5-12.5-6.902 0-12.5 5.597-12.5 12.5V140H79.007c-6.903 0-12.5 5.598-12.5 12.5 0 6.903 5.597 12.5 12.5 12.5h60.995v60.997c0 6.902 5.598 12.5 12.5 12.5 6.904 0 12.5-5.598 12.5-12.5V165H226c6.902 0 12.5-5.597 12.5-12.5 0-6.902-5.598-12.5-12.5-12.5z"/>
    </symbol>
    <symbol id="archive34" viewBox="0 0 915.9 915.9">
      <title>archive34 icon</title>
      <path d="M749.1 0H166.7c-27.6 0-50 22.4-50 50v815.9c0 27.6 22.4 50 50 50h582.5c27.6 0 50-22.4 50-50V50c-.1-27.7-22.4-50-50.1-50zm-8.6 817.5c0 22.1-17.9 40-40 40H215.3c-22.1 0-40-17.9-40-40V523.6c0-22.1 17.9-40 40-40h485.2c22.1 0 40 17.9 40 40v293.9zm0-425.4c0 22.1-17.9 40-40 40H215.3c-22.1 0-40-17.9-40-40V98.2c0-22.1 17.9-40 40-40h485.2c22.1 0 40 17.9 40 40v293.9z"/><path d="M700.5 88.2H215.3c-5.5 0-10 4.5-10 10v293.9c0 5.5 4.5 10 10 10h485.2c5.5 0 10-4.5 10-10V98.2c0-5.5-4.5-10-10-10zm-83.3 178.3c0 22.1-17.9 40-40 40H338.6c-22.1 0-40-17.9-40-40v-15.7c0-8.3 6.7-15 15-15s15 6.7 15 15v15.7c0 5.5 4.5 10 10 10h238.6c5.5 0 10-4.5 10-10v-15.7c0-8.3 6.7-15 15-15s15 6.7 15 15v15.7zM700.5 513.6H215.3c-5.5 0-10 4.5-10 10v293.9c0 5.5 4.5 10 10 10h485.2c5.5 0 10-4.5 10-10V523.6c0-5.5-4.5-10-10-10zm-83.3 170c0 23.5-19.1 42.6-42.6 42.6h-236c-22.1 0-40-17.898-40-40v-15.6c0-8.3 6.7-15 15-15s15 6.7 15 15v15.7c0 5.5 4.5 10 10 10h236c7 0 12.6-5.7 12.6-12.6v-13.1c0-8.3 6.7-15 15-15s15 6.7 15 15v13z"/>
    </symbol>
    <symbol id="close40" viewBox="0 0 612 612">
      <title>close40 icon</title>
      <path d="M420.5 218.79c-.285-6.942-2.867-13.827-8.185-19.125-5.297-5.298-12.183-7.898-19.125-8.186-7.726-.326-15.548 2.275-21.438 8.185L306 265.435l-65.752-65.77c-5.91-5.91-13.712-8.492-21.44-8.186-6.94.286-13.826 2.868-19.124 8.185-5.297 5.298-7.898 12.183-8.186 19.125-.325 7.727 2.276 15.53 8.186 21.44L265.436 306l-65.752 65.752c-5.91 5.91-8.492 13.713-8.186 21.438.287 6.942 2.87 13.828 8.186 19.125 5.298 5.298 12.183 7.9 19.125 8.186 7.726.326 15.53-2.274 21.438-8.185L306 346.565l65.77 65.77c5.91 5.91 13.714 8.49 21.44 8.186 6.942-.286 13.827-2.868 19.125-8.185 5.298-5.298 7.898-12.183 8.186-19.125.326-7.727-2.275-15.53-8.185-21.44L346.565 306l65.75-65.752c5.91-5.91 8.51-13.712 8.186-21.458zM306 0C137.012 0 0 137.012 0 306s137.012 306 306 306 306-137.012 306-306S474.988 0 306 0zm0 554.625C168.912 554.625 57.375 443.088 57.375 306S168.912 57.375 306 57.375 554.625 168.912 554.625 306 443.088 554.625 306 554.625z"/>
    </symbol>
    <symbol id="email5" viewBox="0 0 14 14">
      <title>email5 icon</title>
      <g fill="#030104"><path d="M7 9L5.268 7.484.316 11.73c.18.166.423.27.69.27h11.987c.267 0 .51-.104.688-.27L8.733 7.483 7 9z"/><path d="M13.684 2.27c-.18-.167-.422-.27-.69-.27H1.006c-.267 0-.51.104-.69.273L7 8l6.684-5.73zM0 2.878v8.308L4.833 7.08M9.167 7.08L14 11.185v-8.31"/></g>
    </symbol>
    <symbol id="facebook2" viewBox="0 0 49.652 49.652">
      <title>facebook2 icon</title>
      <path d="M24.826 0C11.136 0 0 11.137 0 24.826c0 13.688 11.137 24.826 24.826 24.826 13.688 0 24.826-11.138 24.826-24.826C49.652 11.136 38.516 0 24.826 0zM31 25.7h-4.04v14.396h-5.984V25.7H18.13v-5.088h2.846v-3.29c0-2.358 1.12-6.04 6.04-6.04l4.435.016v4.94h-3.218c-.524 0-1.27.26-1.27 1.385v2.99h4.56L31 25.7z"/>
    </symbol>
    <symbol id="github5" viewBox="0 0 512 512">
      <title>github5 icon</title>
      <path d="M0 262.285c0 23.198 2.17 44.188 6.51 62.967 4.34 18.777 10.35 35.092 18.027 48.946 7.678 13.854 17.442 26.04 29.293 36.554 11.85 10.516 24.703 19.112 38.556 25.788 13.853 6.675 29.668 12.1 47.444 16.273 17.776 4.173 35.928 7.094 54.455 8.764 18.527 1.67 38.89 2.503 61.09 2.503 22.365 0 42.812-.834 61.34-2.503 18.525-1.67 36.72-4.592 54.58-8.764 17.857-4.174 33.756-9.598 47.693-16.273 13.938-6.677 26.873-15.272 38.81-25.788 11.935-10.515 21.78-22.702 29.542-36.554 7.76-13.854 13.81-30.168 18.15-48.946 4.34-18.777 6.51-39.77 6.51-62.967 0-41.395-13.854-77.197-41.56-107.408 1.503-4.006 2.88-8.554 4.132-13.646 1.252-5.09 2.42-12.35 3.504-21.78 1.086-9.432.668-20.32-1.252-32.673-1.918-12.353-5.465-24.953-10.643-37.807l-3.753-.75c-2.672-.5-7.055-.376-13.146.375s-13.185 2.253-21.278 4.507c-8.096 2.253-18.527 6.594-31.297 13.02s-26.248 14.48-40.436 24.16c-24.368-6.677-57.835-10.016-100.397-10.016-42.396 0-75.778 3.34-100.147 10.016-14.188-9.682-27.75-17.734-40.685-24.16S91.8 55.355 84.123 53.102c-7.677-2.253-14.855-3.713-21.53-4.38-6.678-.67-10.893-.877-12.645-.627-1.752.25-3.13.543-4.13.876-5.175 12.855-8.722 25.454-10.64 37.808-1.92 12.352-2.338 23.242-1.253 32.673 1.085 9.43 2.254 16.69 3.505 21.782 1.25 5.092 2.628 9.64 4.13 13.646C13.854 185.088 0 220.89 0 262.285zm62.842 62.842c0-24.035 10.933-46.068 32.798-66.097 6.51-6.012 14.104-10.56 22.783-13.646 8.68-3.09 18.485-4.84 29.418-5.26 10.934-.416 21.407-.333 31.422.252 10.014.584 22.366 1.377 37.054 2.378 14.688 1.002 27.374 1.502 38.056 1.502 10.683 0 23.368-.5 38.056-1.502 14.69-1 27.04-1.794 37.057-2.378 10.014-.585 20.486-.668 31.42-.25 10.934.417 20.738 2.17 29.42 5.258 8.678 3.088 16.27 7.635 22.78 13.646 21.866 19.695 32.8 41.728 32.8 66.097 0 14.354-1.795 27.08-5.385 38.182-3.588 11.1-8.178 20.404-13.77 27.914-5.593 7.51-13.353 13.896-23.284 19.153-9.932 5.258-19.61 9.305-29.04 12.146-9.433 2.837-21.534 5.05-36.306 6.635-14.773 1.586-27.96 2.546-39.56 2.88-11.6.333-26.33.5-44.188.5-17.86 0-32.59-.167-44.19-.5-11.6-.334-24.786-1.294-39.557-2.88s-26.872-3.798-36.303-6.635c-9.43-2.84-19.11-6.89-29.042-12.146-9.93-5.257-17.693-11.64-23.284-19.153-5.59-7.51-10.182-16.813-13.77-27.915-3.59-11.102-5.384-23.83-5.384-38.183zM320 320.08c0 26.51 14.326 48 32 48s32-21.49 32-48-14.326-48-32-48-32 21.49-32 48zm-192 0c0 26.51 14.327 48 32 48s32-21.49 32-48-14.327-48-32-48-32 21.49-32 48z"/>
    </symbol>
    <symbol id="home78" viewBox="0 0 460.298 460.297">
      <title>home78 icon</title>
      <path d="M230.15 120.94L65.985 256.273c0 .19-.048.472-.144.855-.094.38-.144.655-.144.85v137.042c0 4.948 1.81 9.236 5.426 12.847 3.616 3.612 7.898 5.43 12.847 5.43H193.6V303.664H266.7v109.64h109.63c4.947 0 9.235-1.814 12.846-5.435 3.617-3.608 5.432-7.9 5.432-12.848v-137.04c0-.76-.104-1.335-.288-1.708L230.148 120.94z"/><path d="M457.122 225.438L394.6 173.476V56.99c0-2.664-.856-4.854-2.574-6.568-1.704-1.712-3.894-2.568-6.563-2.568h-54.816c-2.666 0-4.855.856-6.57 2.568-1.71 1.714-2.566 3.905-2.566 6.567v55.672l-69.66-58.245c-6.085-4.95-13.32-7.423-21.695-7.423s-15.608 2.474-21.698 7.423L3.172 225.437c-1.903 1.52-2.946 3.567-3.14 6.137-.193 2.568.472 4.81 1.997 6.713l17.7 21.128c1.525 1.712 3.52 2.76 5.996 3.142 2.285.192 4.57-.476 6.855-1.998L230.15 95.816l197.57 164.74c1.525 1.33 3.52 1.992 5.995 1.992h.858c2.47-.377 4.463-1.43 5.996-3.14l17.702-21.124c1.522-1.906 2.19-4.145 1.99-6.716-.194-2.563-1.24-4.61-3.14-6.132z"/>
    </symbol>
    <symbol id="info27" viewBox="0 0 45.999 45.999">
      <title>info27 icon</title>
      <path d="M39.264 6.736c-8.982-8.98-23.545-8.982-32.528 0-8.982 8.982-8.98 23.545 0 32.528 8.982 8.98 23.545 8.98 32.528 0 8.98-8.983 8.98-23.545 0-32.528zM26 33c0 1.657-1.344 3-3 3s-3-1.343-3-3V21c0-1.657 1.342-3 3-3s3 1.343 3 3v12zm-3.054-17.128c-1.728 0-2.88-1.224-2.844-2.735-.036-1.584 1.116-2.77 2.88-2.77 1.763 0 2.88 1.187 2.916 2.77 0 1.51-1.152 2.735-2.952 2.735z"/>
    </symbol>
    <symbol id="linkedin12" viewBox="0 0 430.117 430.118">
      <title>linkedin12 icon</title>
      <path d="M398.355 0H31.782C14.23 0 .002 13.793.002 30.817v368.47c0 17.026 14.232 30.83 31.78 30.83h366.573c17.55 0 31.76-13.813 31.76-30.83V30.818c0-17.02-14.21-30.817-31.76-30.817zM130.4 360.038H65.413V165.845H130.4v194.193zM97.913 139.315h-.437c-21.793 0-35.92-14.904-35.92-33.563 0-19.035 14.542-33.535 36.767-33.535 22.227 0 35.9 14.496 36.33 33.535 0 18.663-14.098 33.563-36.74 33.563zM364.66 360.038h-64.967v-103.9c0-26.107-9.413-43.92-32.907-43.92-17.973 0-28.642 12.017-33.327 23.62-1.737 4.144-2.167 9.94-2.167 15.728v108.468H166.34s.85-175.98 0-194.192h64.963v27.53c8.624-13.228 24.035-32.1 58.534-32.1 42.76 0 74.822 27.74 74.822 87.415v111.35zM230.882 193.99c.11-.182.266-.4.42-.614v.614h-.42z"/>
    </symbol>
    <symbol id="linux5" viewBox="0 0 573.224 573.224">
      <title>linux5 icon</title>
      <path d="M243.684 136.265c0 1.285.526 1.824 1.597 1.597.852 0 1.764-.998 2.718-3.036.96-2.013 2.607-3.133 4.957-3.36h-3.2c-4.046.655-6.07 2.253-6.07 4.8zM271.512 132.434c2.13-.637 3.996-.166 5.6 1.438s2.82 2.3 3.678 2.087c1.28-.637 1.597-1.598.96-2.89-1.713-2.76-5.122-2.974-10.238-.636z"/><path d="M516.207 472.124c-.636-.41-2.398-1.438-5.275-3.035-2.876-1.6-5.17-2.976-6.88-4.163-1.706-1.163-3.946-3.2-6.72-6.07-2.77-2.877-4.956-5.925-6.553-9.12-1.6-3.2-3.153-7.51-4.64-12.943-1.494-5.446-2.35-11.456-2.56-18.078-2.986 2.564-4.64 7.632-4.956 15.196-.318 7.582 1.278 15.306 4.798 23.188 3.52 7.895 8.794 13.017 15.832 15.354 6.824 2.35 12.313 4.86 16.476 7.52 4.16 2.663 6.823 5.7 7.998 9.108 1.17 3.408-.802 7.086-5.918 11.034-5.116 3.947-13.33 7.846-24.627 11.683-15.57 5.323-26.604 9.858-33.108 13.592-6.506 3.72-16.047 10.808-28.63 21.267-8.53 7.03-17.595 10.82-27.19 11.358-9.597.526-17.382-2.987-23.35-10.558-5.972-7.57-7.888-18.292-5.758-32.148 4.045-26.64 3.94-47.43-.318-62.375-3.416-11.72-4.162-22.068-2.24-31.022 1.92-8.96 4.9-14.167 8.953-15.667 4.045-1.487 8.42 1.714 13.115 9.597.43 1.064 1.383 3.146 2.876 6.236 1.487 3.098 2.718 5.276 3.68 6.562.96 1.272 2.397 2.938 4.32 4.957 1.92 2.024 4.32 3.463 7.196 4.308 2.876.862 6.236 1.39 10.073 1.598 7.246.226 13.752-1.273 19.51-4.475 5.76-3.2 10.074-6.773 12.957-10.72 2.876-3.937 5.76-7.725 8.636-11.36 2.876-3.61 5.385-5.648 7.515-6.07 2.346-.423 4.48-2.772 6.397-7.032 1.916-4.26 3.195-10.184 3.838-17.754.636-7.57.104-16.567-1.598-27.026-3.2-18.556-9.547-38.923-19.033-61.102-9.492-22.167-20.104-39.548-31.824-52.143-21.107-22.393-35.294-45.63-42.54-69.72-7.467-25.378-10.667-48.194-9.596-68.457 1.064-14.492-2.08-30.227-9.438-47.18s-17.11-29.903-29.266-38.856c-7.675-5.76-17.167-10.184-28.47-13.28C298.584 1.246 287.28-.193 275.984.02c-13.862 0-24.952 2.235-33.27 6.71-17.06 9.185-28.36 20.317-33.904 33.433-5.544 13.11-8.102 29.26-7.673 48.452.85 42.222 2.558 75.282 5.116 99.156-2.993 11.097-16.212 31.886-39.664 62.376-4.267 4.27-8.428 10.02-12.474 17.27-4.052 7.26-7.252 13.76-9.596 19.518-2.35 5.76-5.49 14.07-9.437 24.95-3.948 10.87-6.775 18.557-8.476 23.03-1.494 3.838-3.837 8.323-7.038 13.434-3.202 5.123-5.76 10.135-7.676 15.03-1.92 4.91-2.993 10.46-3.2 16.64-.215 4.7 0 8.747.636 12.144.85 5.122 2.448 6.72 4.798 4.798 9.596-7.246 21.64-2.975 36.145 12.797 10.232 11.096 28.25 36.897 54.058 77.418 2.13 3.623 4.267 7.51 6.397 11.67 2.13 4.163 4.162 9.695 6.077 16.63 1.916 6.934 2.717 13.17 2.4 18.714-.32 5.532-2.773 10.66-7.357 15.354-4.59 4.688-11.47 7.675-20.63 8.947-4.91.65-10.827.216-17.755-1.27-6.934-1.5-15.73-3.948-26.39-7.363-10.667-3.41-18.55-5.76-23.672-7.032-7.466-1.714-18.072-3.898-31.824-6.56-13.758-2.663-22.766-4.634-27.032-5.913-7.252-1.922-11.194-4.7-11.836-8.323-.643-2.987.85-8.11 4.48-15.356 3.623-7.258 5.435-12.472 5.435-15.667.208-2.338.104-4.688-.318-7.03-.428-2.352-.912-4.163-1.438-5.448-.533-1.273-1.438-3.2-2.717-5.748-1.28-2.563-2.136-4.485-2.558-5.76-3.837-8.958-4.376-15.03-1.598-18.23 1.922-2.772 6.5-3.85 13.758-3.2 10.875 1.064 19.72-.54 26.55-4.798 11.296-7.045 14.71-18.342 10.23-33.91 0 7.257-1.278 12.69-3.836 16.314-2.56 3.623-7.038 7.344-13.434 11.193-3.63 2.138-10.024 3.41-19.192 3.84-9.174.42-15.245 1.908-18.23 4.473-2.137 1.922-3.25 4.798-3.36 8.635-.11 3.85.373 7.748 1.437 11.684 1.065 3.947 2.13 8.47 3.2 13.593 1.065 5.11 1.488 9.382 1.28 12.797-.214 2.338-2.136 8.157-5.76 17.43-3.628 9.27-4.375 16.37-2.24 21.267 1.066 2.35 2.877 4.424 5.436 6.248 2.56 1.8 6.126 3.348 10.716 4.633 4.583 1.273 8.793 2.29 12.63 3.036 3.838.734 9.168 1.7 15.992 2.877 6.824 1.175 12.26 2.185 16.316 3.047 13.642 2.76 29.21 7.35 46.702 13.746 17.48 6.396 29.32 9.694 35.508 9.92 5.967.215 11.67-1.02 17.112-3.672 5.44-2.674 10.073-5.71 13.91-9.118 3.838-3.42 9.542-6.622 17.113-9.597 7.564-2.987 16.046-4.585 25.428-4.8 4.267-.226 10.448-.477 18.55-.8s14.18-.48 18.233-.48c18.335 0 32.197.1 41.585.313 6.396.214 11.407 1.224 15.03 3.035s5.968 3.898 7.038 6.25c1.065 2.337 2.82 5.048 5.282 8.145 2.447 3.097 5.6 5.6 9.437 7.52 8.104 3.838 17.595 5.374 28.47 4.634 10.876-.747 18.122-2.82 21.75-6.236 5.968-5.758 14.022-12.582 24.15-20.464 10.123-7.896 19.24-13.868 27.35-17.92 1.702-.862 4.585-2.233 8.637-4.16 4.045-1.91 7.46-3.575 10.232-4.965 2.772-1.388 6.126-3.145 10.073-5.274 3.94-2.136 7.143-4.112 9.597-5.924 2.447-1.812 4.957-3.898 7.515-6.236 2.558-2.35 4.21-4.7 4.957-7.032.746-2.35 1.01-4.736.795-7.197-.214-2.447-1.493-5.012-3.837-7.674-2.327-2.65-5.632-5.275-9.898-7.84zm-161.53-301.306c.642-.41 1.064-.575 1.278-.477.208.11.637.54 1.28 1.274.642.747 1.223 1.438 1.762 2.087.526.637 1.28 1.5 2.24 2.547.96 1.077 1.97 1.92 3.04 2.564 1.28.864 2.822 1.44 4.64 1.764 1.812.324 3.2.863 4.156 1.597.96.748 1.652 1.978 2.08 3.673.423 2.35.05 4.486-1.12 6.395-1.175 1.922-2.717 2.785-4.64 2.564-3.836-.85-7.998-4.21-12.472-10.074-4.472-5.862-5.23-10.49-2.244-13.91zm-39.664-124.26c1.064-1.39 1.7-2.497 1.915-3.36.423-1.285.478-2.613.16-3.997-.32-1.382-.215-2.77.317-4.16.532-1.378 1.763-2.173 3.68-2.4 1.92 0 4.478 1.597 7.673 4.798.637.422 1.652 1.077 3.042 1.922 1.383.85 2.344 1.597 2.876 2.234.533.636.802 1.175.802 1.597-.428 1.066-1.39 1.813-2.876 2.235-1.493.422-3.097.636-4.798.636-1.708 0-2.67.11-2.877.326-1.707.636-3.31 1.597-4.798 2.876-1.494 1.285-2.67 2.233-3.52 2.89-.857.635-1.708.635-2.56 0-.855-1.286-1.174-2.186-.96-2.725.215-.526.857-1.487 1.923-2.87zM160.2 285.966c1.488-1.7 2.56-3.084 3.195-4.162.637-1.046 1.224-2.497 1.763-4.31.526-1.81 1.01-3.132 1.438-3.995.43-.852 1.065-1.176 1.922-.962.422.227.747.422.96.636.21.227.32.49.32.802v.96s-.056.748-.16 1.274c-.11.55-.27 1.022-.478 1.45-.214.423-.428 1.065-.636 1.91-.214.863-.43 1.598-.637 2.234-.857 2.148-2.19 4.064-3.997 5.758-1.817 1.714-3.15 2.46-3.996 2.234-1.296-.403-1.186-1.694.307-3.83zm207.114 173.85c1.812 11.193 2.503 19.027 2.08 23.5-.428 6.837-1.866 16.42-4.32 28.79-2.454 12.368-3.996 20.58-4.64 24.64-4.48-.228-7.037-1.874-7.674-4.964-.637-3.098 0-7.1 1.915-11.996 4.688-14.296 7.143-24.1 7.356-29.425.43-9.81-.636-15.353-3.193-16.64-2.35-1.7-5.974 1.5-10.875 9.597-9.39 15.355-28.257 24.64-56.616 27.84-25.588 3.396-43.293-.435-53.097-11.518-2.137-1.5-4.273-1.764-6.397-.803-2.136.96-3.52 1.977-4.156 3.035-.214.423 0 1.065.637 1.922.636.85 1.652 2.124 3.036 3.837 1.383 1.703 2.503 3.41 3.36 5.124 8.317 14.492 7.57 24.303-2.24 29.425 0-9.823-.752-17.333-2.24-22.553-1.493-5.22-4.48-10.986-8.96-17.27-4.48-6.298-7.57-11.047-9.277-14.242 6.396-.636 11.25-3.084 14.554-7.344 3.305-4.26 4.798-8.843 4.48-13.757-.32-4.896-2.192-8.96-5.6-12.16-1.917-1.922-11.837-10.073-29.75-24.462-17.914-14.394-29.003-24.038-33.27-28.946-.856-.85-3.414-2.986-7.674-6.396-4.266-3.41-6.934-6.396-8-8.96-9.81-21.53-10.874-39.235-3.194-53.104l1.278-1.597c1.065-.202 1.17 1.714.318 5.76-1.28 5.984-1.708 11.945-1.28 17.918.852 13.434 4.69 23.452 11.513 30.062 4.48 4.486 7.57 4.162 9.277-.96 1.28-1.702 1.867-8 1.756-18.868-.11-10.87.05-18.232.483-22.063 1.702-12.16 6.763-27.19 15.19-45.104 8.42-17.92 15.086-27.516 19.994-28.79-3.837-6.174-5.067-12.894-3.678-20.152 1.383-7.245 3.623-13.433 6.72-18.555 3.09-5.11 6.236-11.034 9.437-17.742 3.2-6.72 4.797-12.742 4.797-18.08 0-1.486.104-2.563.318-3.2.636-1.91 3.305.435 8 7.032 8.953 13.23 15.672 21.016 20.152 23.354 4.688 2.563 9.915 2.46 15.673-.313s12.846-7.362 21.273-13.758c8.42-6.397 15.62-11.084 21.59-14.083.644-.202 1.653-.686 3.043-1.438 1.383-.735 2.448-1.274 3.2-1.6.747-.31 1.708-.8 2.877-1.437 1.17-.637 2.08-1.175 2.717-1.597.637-.422 1.28-.9 1.916-1.438s1.064-1.065 1.28-1.597c.207-.538.316-1.01.316-1.437-.428-1.92-1.334-3.097-2.717-3.525-1.39-.422-3.256-.16-5.6.802-2.35.96-4.957 2.234-7.84 3.837-2.877 1.597-6.077 3.42-9.597 5.435-3.52 2.038-7.093 3.898-10.716 5.6-3.63 1.713-7.466 3.2-11.518 4.486-4.052 1.273-7.89 2.026-11.512 2.234-8.96.227-16.102-2.124-21.432-7.032-3.415-3.2-5.227-5.22-5.44-6.083-.215-.85.746-1.046 2.88-.636 11.513 1.5 19.934 1.714 25.27.637 5.546-.85 13.006-3.3 22.388-7.344 1.922-.85 6.77-2.938 14.554-6.25 7.778-3.298 13.807-5.6 18.072-6.872 2.558-.635 4.32-1.645 5.275-3.035.953-1.39 1.277-2.662.96-3.837-.318-1.175-1.017-2.087-2.08-2.724-2.352-1.273-4.475-.422-6.397 2.564-1.07 1.91-3.31 3.788-6.72 5.6-3.415 1.812-6.555 3.2-9.438 4.162-2.876.95-6.56 2.075-11.034 3.348-4.478 1.285-6.933 2.038-7.355 2.246-11.732 3.623-22.607 5.22-32.626 4.798-4.695-.214-8.477-.9-11.354-2.087-2.876-1.163-4.853-2.564-5.918-4.162-1.07-1.598-2.772-3.61-5.116-6.07-2.35-2.45-5.012-4.523-8-6.237-2.135-1.065-2.93-2.986-2.398-5.76.526-2.77 2.185-5.648 4.957-8.634.21-.214 2.4-1.536 6.562-3.997 4.155-2.448 7.087-4.963 8.794-7.52 1.916-2.975 5.227-6.072 9.914-9.272.208-.85.367-3.2.478-7.032.104-3.85-.912-7.998-3.042-12.484-2.136-4.474-5.012-6.707-8.635-6.707-5.116-.215-8.745 1.272-10.874 4.473-2.136 3.2-3.097 7.148-2.876 11.83.208 4.063 1.224 7.63 3.042 10.722 1.812 3.097 3.464 4.633 4.958 4.633 2.344-.214 3.09.636 2.24 2.564-1.28 2.35-2.993 3.837-5.116 4.474-1.493.435-3.146-1.01-4.957-4.308-1.812-3.3-3.2-7.295-4.156-11.995-.954-4.7-1.333-8.648-1.12-11.842.423-6.597 2.186-12.943 5.276-19.026 3.09-6.07 7.515-9.008 13.274-8.794 5.967.227 10.765 3.837 14.395 10.88 3.623 7.033 5.33 16.63 5.116 28.79.638 1.5 2.29 2.026 4.958 1.597 2.662-.422 6.18-.49 10.557-.165 4.37.312 7.515 1.438 9.437 3.36.208 0 .318-1.597.318-4.798-3.837-26.88 5.648-41.157 28.47-42.87 3.41.635 6.286 1.437 8.636 2.398 2.344.96 4.847 2.564 7.516 4.798 2.662 2.234 4.9 5.496 6.72 9.762 1.805 4.27 3.25 9.596 4.32 15.99v11.83c0 6.837-1.39 10.674-4.16 11.52-4.475 1.498-7.676 1.437-9.598-.167-1.915-1.597-1.707-4.425.637-8.47 2.13-5.336 1.708-11.518-1.278-18.556-2.986-7.033-8.427-10.233-16.315-9.597-5.33.214-9.174 3.097-11.52 8.635-2.35 5.545-3.2 10.985-2.557 16.316.637 5.337 1.812 8.097 3.52 8.31 1.278.228 5.06 1.923 11.352 5.124 6.292 3.2 11.035 5.11 14.235 5.76 8.317 1.7 13.06 4.375 14.235 7.998 1.17 3.623.69 8.898-1.438 15.833-2.136 6.933-2.772 12.63-1.922 17.104.852 4.7 2.448 8.96 4.8 12.797 2.343 3.85 4.846 7.363 7.514 10.558 2.663 3.2 5.81 9.187 9.438 17.92 3.623 8.745 6.928 19.73 9.914 32.95.208.213 1.01.948 2.4 2.233 1.382 1.274 2.765 2.877 4.154 4.8 1.383 1.91 3.042 4.534 4.957 7.833 1.915 3.31 3.996 8.158 6.235 14.553 2.24 6.396 4.32 13.758 6.236 22.07 2.345 9.82 3.57 21.23 3.68 34.222.104 13.018.96 21.916 2.558 26.714s5.704 6.775 12.313 5.924c8.318-.422 13.643-4.896 15.992-13.445 7.038-24.724 1.28-54.375-17.27-88.91-7.04-13.446-13.116-22.29-18.232-26.55 7.46 4.26 15.14 12.26 23.03 23.992 7.89 11.732 12.9 22.705 15.036 32.95.208 1.065.802 3.898 1.757 8.47.96 4.584 1.487 7.26 1.598 8 .105.746.526 2.937 1.28 6.56.746 3.623 1.12 5.974 1.12 7.032 0 1.077.103 3.146.317 6.236.208 3.097.16 5.496-.16 7.197-.317 1.714-.636 3.996-.96 6.885-.318 2.877-.856 5.648-1.597 8.312-.753 2.674-1.55 5.6-2.4 8.794 11.727 5.122 17.596 9.597 17.596 13.434-4.48-3.61-10.875-6.01-19.192-7.197-8.316-1.163-16.047-.05-23.188 3.36-7.148 3.42-10.826 9.07-11.034 16.958-7.675 0-13.115 1.922-16.316 5.76-4.693 5.544-7.147 13.053-7.355 22.552-.18 9.468.616 19.798 2.434 30.99zM235.367 112.604c-.636-.214-1.175-.85-1.597-1.922 0-1.91.96-2.65 2.876-2.233 1.28.434 2.503 2.037 3.678 4.797 1.17 2.785 1.438 5.985.802 9.596 0 .637-.318.96-.96.96-2.35 0-3.202-2.123-2.56-6.395.644-3.206-.11-4.804-2.24-4.804zm82.846 5.123l-.643.95c-1.707 1.076-2.558 1.284-2.558.647-.857-5.76-2.772-9.058-5.76-9.92-.428-.214-.856-.422-1.278-.636-1.493-1.286-.753-2.026 2.24-2.234.636-.214 1.597.098 2.876.948 1.28.863 2.448 2.197 3.52 3.997 1.07 1.822 1.603 3.897 1.603 6.247z"/>
    </symbol>
    <symbol id="menu30" viewBox="0 0 46 46">
      <title>menu30 icon</title>
      <path d="M29.875 15h-13.75c-.62 0-1.125.504-1.125 1.125v.75c0 .62.504 1.125 1.125 1.125h13.75c.62 0 1.125-.504 1.125-1.125v-.75c0-.62-.504-1.125-1.125-1.125zM30 22H16c-.553 0-1 .447-1 1v1c0 .553.447 1 1 1h14c.553 0 1-.447 1-1v-1c0-.553-.447-1-1-1zM23 0C10.298 0 0 10.298 0 23s10.298 23 23 23 23-10.298 23-23S35.702 0 23 0zm0 42C12.507 42 4 33.493 4 23S12.507 4 23 4s19 8.507 19 19-8.507 19-19 19zm7-13H16c-.553 0-1 .447-1 1v1c0 .553.447 1 1 1h14c.553 0 1-.447 1-1v-1c0-.553-.447-1-1-1z"/>
    </symbol>
    <symbol id="minus87" viewBox="0 0 612 612">
      <title>minus87 icon</title>
      <path d="M430.676 287.334h-249.37c-10.31 0-18.667 8.357-18.687 18.686 0 10.308 8.357 18.685 18.685 18.685h249.37c10.31 0 18.667-8.357 18.687-18.685 0-10.33-8.36-18.705-18.686-18.686zM306 0C136.992 0 0 136.992 0 306s136.992 306 306 306 306-136.992 306-306S475.008 0 306 0zm0 573.75C158.125 573.75 38.25 453.875 38.25 306S158.125 38.25 306 38.25 573.75 158.125 573.75 306 453.875 573.75 306 573.75z"/>
    </symbol>
    <symbol id="twitter" viewBox="0 0 49.652 49.652">
      <title>twitter icon</title>
      <path d="M24.826 0C11.136 0 0 11.137 0 24.826c0 13.688 11.137 24.826 24.826 24.826 13.688 0 24.826-11.138 24.826-24.826C49.652 11.136 38.516 0 24.826 0zM35.9 19.144c.012.246.018.494.018.742 0 7.55-5.746 16.255-16.26 16.255-3.226 0-6.23-.942-8.758-2.564.447.053.902.08 1.363.08 2.678 0 5.14-.914 7.097-2.446-2.5-.046-4.61-1.698-5.338-3.97.348.067.707.104 1.074.104.52 0 1.027-.068 1.506-.2-2.614-.523-4.583-2.832-4.583-5.602v-.072c.77.427 1.65.685 2.587.714-1.532-1.023-2.54-2.773-2.54-4.755 0-1.05.28-2.03.772-2.875 2.816 3.458 7.028 5.732 11.776 5.972-.098-.42-.147-.854-.147-1.303 0-3.155 2.557-5.714 5.712-5.714 1.644 0 3.127.694 4.17 1.804 1.304-.256 2.524-.73 3.63-1.387-.43 1.335-1.332 2.454-2.515 3.162 1.157-.14 2.26-.445 3.282-.9-.763 1.144-1.732 2.15-2.85 2.954z"/>
    </symbol>
    <symbol id="web-programming" viewBox="0 0 412.996 412.996">
      <title>web-programming icon</title>
      <path d="M392.996 28.338H20c-11.047 0-20 8.954-20 20v234c0 11.046 8.953 20 20 20h139.498v45.32h-54.283c-10.2 0-18.5 8.3-18.5 18.5s8.3 18.5 18.5 18.5H307.78c10.202 0 18.5-8.3 18.5-18.5s-8.298-18.5-18.5-18.5H253.5v-45.32h139.498c11.047 0 20-8.954 20-20v-234c0-11.046-8.953-20-20-20zm-10 244H30v-214h352.996v214z"/><path d="M94.59 176.637l63.085 29.336c1.63.755 3.367 1.138 5.162 1.138 2.338 0 4.616-.663 6.597-1.923 3.548-2.267 5.666-6.13 5.666-10.335v-.322c0-4.75-2.785-9.115-7.096-11.12l-39.455-18.33 39.455-18.333c4.31-2.004 7.095-6.37 7.095-11.118v-.32c0-4.21-2.12-8.074-5.665-10.334-1.962-1.254-4.247-1.916-6.606-1.916-1.78 0-3.564.39-5.16 1.133l-63.08 29.332c-4.308 2.005-7.09 6.37-7.09 11.117v.878c-.002 4.742 2.78 9.105 7.09 11.117zM175.662 236.39c2.3 3.148 6.002 5.028 9.9 5.028h.316c5.352 0 10.042-3.426 11.672-8.516l41.557-128.76c1.192-3.717.53-7.818-1.77-10.974-2.302-3.15-6.003-5.03-9.902-5.03h-.314c-5.353 0-10.047 3.426-11.678 8.516l-41.562 128.77c-1.182 3.72-.516 7.818 1.782 10.965zM237.896 135.628c0 4.746 2.782 9.11 7.095 11.122l39.456 18.33-39.455 18.33c-4.31 2.004-7.095 6.368-7.095 11.12v.32c0 4.206 2.117 8.07 5.67 10.337 1.973 1.258 4.253 1.923 6.594 1.923 1.79 0 3.526-.383 5.168-1.142l63.08-29.335c4.308-2.01 7.09-6.372 7.09-11.115v-.878c0-4.748-2.783-9.112-7.093-11.117l-63.08-29.334c-1.59-.74-3.373-1.132-5.152-1.132-2.358 0-4.644.662-6.604 1.912-3.555 2.264-5.674 6.127-5.674 10.338v.32z"/>
    </symbol>
    <symbol id="world91" viewBox="0 0 31.416 31.416">
      <title>world91 icon</title>
      <path d="M28.755 6.968l-.47.15-2.503.222-.707 1.13-.513-.164L22.57 6.51l-.29-.934-.386-.996-1.252-1.123-1.477-.29-.034.677 1.448 1.412.708.834-.796.416-.648-.19-.97-.406.032-.783-1.274-.524-.423 1.84-1.284.292.127 1.027 1.673.322.29-1.64 1.38.203.642.376h1.03l.705 1.412 1.87 1.896-.138.738-1.507-.192-2.604 1.315-1.874 2.25-.244.996H16.6l-1.255-.578-1.218.578.303 1.285.53-.61.932-.03-.065 1.155.772.226.77.867 1.26-.354 1.437.227 1.67.45.834.097 1.415 1.605 2.73 1.605-1.766 3.372-1.864.865-.707 1.927-2.697 1.8-.287 1.038c6.892-1.66 12.02-7.85 12.02-15.253-.003-3.233-.983-6.242-2.66-8.74z"/><path d="M17.515 23.917l-1.144-2.12 1.05-2.19-1.05-.313-1.178-1.184-2.612-.586-.867-1.814v1.077h-.382l-2.25-3.052v-2.507L7.43 8.545l-2.62.467H3.045l-.888-.582 1.133-.898-1.13.26C.798 10.12.004 12.82.004 15.71c0 8.672 7.03 15.706 15.705 15.706.667 0 1.322-.06 1.97-.137l-.164-1.904s.72-2.826.72-2.922c0-.097-.72-2.537-.72-2.537zM5.84 5.065l2.79-.39 1.286-.704 1.447.418 2.312-.128.792-1.245 1.155.19 2.805-.263.773-.852 1.09-.728 1.542.232.562-.085C20.364.552 18.104 0 15.708 0 10.833 0 6.474 2.222 3.596 5.71h.008l2.236-.645zm10.532-3.503L17.976.68l1.03.594-1.49 1.135-1.425.142-.64-.416.922-.574zm-4.75.13l.707.294.926-.295.505.876-2.14.562-1.028-.602s1.006-.648 1.03-.835z"/>
    </symbol></svg>