<?xml version="1.0" encoding="iso-8859-1"?>
<!-- Generator: Adobe Illustrator 16.0.0, SVG Export Plug-In . SVG Version: 6.00 Build 0)  -->
<!DOCTYPE svg PUBLIC "-//W3C//DTD SVG 1.1//EN" "http://www.w3.org/Graphics/SVG/1.1/DTD/svg11.dtd">
<svg version="1.1" id="Capa_1" xmlns="http://www.w3.org/2000/svg" xmlns:xlink="http://www.w3.org/1999/xlink" x="0px" y="0px"
	 width="46px" height="46px" viewBox="0 0 46 46" style="enable-background:new 0 0 46 46;" xml:space="preserve" fill="#fff" stroke="#fff">
<g>
	<g id="Navigation">
		<g>
			<path d="M29.875,15h-13.75C15.504,15,15,15.504,15,16.125v0.75C15,17.496,15.504,18,16.125,18h13.75
				C30.496,18,31,17.496,31,16.875v-0.75C31,15.504,30.496,15,29.875,15z M30,22H16c-0.553,0-1,0.447-1,1v1c0,0.553,0.447,1,1,1h14
				c0.553,0,1-0.447,1-1v-1C31,22.447,30.553,22,30,22z M23,0C10.298,0,0,10.298,0,23s10.298,23,23,23s23-10.298,23-23
				S35.702,0,23,0z M23,42C12.507,42,4,33.493,4,23S12.507,4,23,4s19,8.507,19,19S33.493,42,23,42z M30,29H16c-0.553,0-1,0.447-1,1
				v1c0,0.553,0.447,1,1,1h14c0.553,0,1-0.447,1-1v-1C31,29.447,30.553,29,30,29z"/>
		</g>
	</g>
</g>
<g>
</g>
<g>
</g>
<g>
</g>
<g>
</g>
<g>
</g>
<g>
</g>
<g>
</g>
<g>
</g>
<g>
</g>
<g>
</g>
<g>
</g>
<g>
</g>
<g>
</g>
<g>
</g>
<g>
</g>
</svg>
