<?xml version="1.0" encoding="iso-8859-1"?>
<!-- Generator: Adobe Illustrator 16.0.0, SVG Export Plug-In . SVG Version: 6.00 Build 0)  -->
<!DOCTYPE svg PUBLIC "-//W3C//DTD SVG 1.1//EN" "http://www.w3.org/Graphics/SVG/1.1/DTD/svg11.dtd">
<svg version="1.1" id="Capa_1" xmlns="http://www.w3.org/2000/svg" xmlns:xlink="http://www.w3.org/1999/xlink" x="0px" y="0px"
	 width="612px" height="612px" viewBox="0 0 612 612" style="enable-background:new 0 0 612 612;" xml:space="preserve">
<g>
	<g id="minus">
		<g>
			<path d="M430.676,287.334H181.305c-10.309,0-18.666,8.357-18.686,18.686c0,10.308,8.358,18.685,18.686,18.685h249.371
				c10.309,0,18.666-8.357,18.686-18.685C449.361,295.691,441.003,287.315,430.676,287.334z M306,0C136.992,0,0,136.992,0,306
				s136.992,306,306,306s306-136.992,306-306S475.008,0,306,0z M306,573.75C158.125,573.75,38.25,453.875,38.25,306
				C38.25,158.125,158.125,38.25,306,38.25c147.875,0,267.75,119.875,267.75,267.75C573.75,453.875,453.875,573.75,306,573.75z"/>
		</g>
	</g>
</g>
<g>
</g>
<g>
</g>
<g>
</g>
<g>
</g>
<g>
</g>
<g>
</g>
<g>
</g>
<g>
</g>
<g>
</g>
<g>
</g>
<g>
</g>
<g>
</g>
<g>
</g>
<g>
</g>
<g>
</g>
</svg>
